<?xml version="1.0" standalone="no"?>
<!DOCTYPE svg PUBLIC "-//W3C//DTD SVG 20010904//EN"
 "http://www.w3.org/TR/2001/REC-SVG-20010904/DTD/svg10.dtd">
<svg version="1.0" xmlns="http://www.w3.org/2000/svg"
 width="700.000000pt" height="700.000000pt" viewBox="0 0 700.000000 700.000000"
 preserveAspectRatio="xMidYMid meet">
<metadata>
Created by potrace 1.11, written by Peter Selinger 2001-2013
</metadata>
<g transform="translate(0.000000,700.000000) scale(0.100000,-0.100000)"
fill="#000000" stroke="none">
<path d="M2130 6749 c-135 -98 -246 -182 -248 -187 -1 -5 6 -18 15 -29 16 -18
133 -149 158 -177 162 -179 284 -318 288 -327 1 -3 -43 -45 -97 -92 l-99 -85
-171 -2 c-94 -1 -301 -4 -461 -7 -159 -3 -340 -6 -402 -6 -61 -1 -111 -3 -109
-4 1 -2 123 -39 271 -83 302 -91 523 -158 545 -166 10 -3 3 -14 -25 -39 -22
-19 -51 -45 -65 -57 -14 -13 -52 -45 -84 -73 -33 -27 -64 -54 -70 -60 -6 -5
-45 -39 -86 -75 -41 -36 -77 -67 -80 -70 -3 -3 -36 -32 -75 -65 -38 -33 -83
-72 -100 -86 -16 -15 -86 -76 -155 -135 -69 -60 -135 -118 -147 -129 -12 -11
-63 -54 -112 -95 -49 -41 -90 -79 -90 -84 -1 -5 5 -4 11 1 28 21 188 103 188
96 0 -4 -13 -22 -28 -40 -135 -158 -313 -484 -401 -736 -40 -115 -94 -320
-106 -404 -13 -91 -15 -110 -23 -168 -4 -33 -7 -161 -6 -285 1 -180 5 -251 23
-355 74 -445 257 -855 543 -1218 95 -120 328 -354 448 -450 352 -281 752 -482
1200 -601 125 -33 329 -73 410 -81 36 -4 76 -9 90 -11 160 -28 660 -21 850 12
14 2 41 7 60 9 253 37 584 133 825 240 654 289 1184 784 1472 1375 61 125 117
265 149 370 17 57 63 242 68 273 15 92 18 111 22 131 25 128 24 547 -1 678 -3
12 -7 40 -11 63 -3 22 -12 72 -20 110 -9 39 -17 77 -19 86 -40 190 -172 503
-300 714 -254 418 -652 796 -1095 1039 l-85 47 95 -6 c52 -3 140 -8 195 -10
55 -3 122 -8 149 -10 28 -3 48 -3 45 -1 -3 3 -68 21 -144 40 -130 32 -455 115
-790 201 -77 20 -149 38 -160 40 -16 4 -338 86 -470 120 -16 5 -34 9 -40 10
-5 2 -39 11 -75 20 -36 9 -73 19 -83 21 -10 2 -27 6 -37 9 -10 3 -27 8 -37 10
-40 9 -257 66 -260 69 -2 1 44 74 102 161 58 87 104 160 101 162 -2 3 -13 0
-23 -5 -10 -5 -141 -58 -291 -116 l-274 -107 -181 46 c-100 26 -185 50 -189
54 -8 7 -227 639 -235 679 -3 12 -8 24 -12 26 -3 2 -116 -77 -251 -175z"/>
</g>
</svg>
