<?xml version="1.0" encoding="UTF-8" standalone="no"?><!DOCTYPE svg PUBLIC "-//W3C//DTD SVG 1.1//EN" "http://www.w3.org/Graphics/SVG/1.1/DTD/svg11.dtd"><svg width="100%" height="100%" viewBox="0 0 260 260" version="1.1" xmlns="http://www.w3.org/2000/svg" xmlns:xlink="http://www.w3.org/1999/xlink" xml:space="preserve" xmlns:serif="http://www.serif.com/" style="fill-rule:evenodd;clip-rule:evenodd;stroke-linejoin:round;stroke-miterlimit:2;"><ellipse cx="128.274" cy="144.509" rx="114.927" ry="102.748" style="fill:#eb5a46;"/><path d="M107.598,58.886l-38.068,-42.555l18.869,-13.727l19.199,56.282Z" style="fill:#70b500;"/><clipPath id="_clip1"><path d="M38.492,30.784l-2.626,18.791l77.58,10.842l2.627,-18.791l-77.581,-10.842Z"/></clipPath><g clip-path="url(#_clip1)"><path d="M36.746,43.278l82.488,-1.211l-3.493,24.988l-78.995,-23.777Z" style="fill:#70b500;"/></g><path d="M133.614,24.041l-23.275,34.943l-15.826,-19.65l39.101,-15.293Z" style="fill:#70b500;"/><path d="M101.335,95.775l-15.242,-48.928l32.605,0.712l-17.363,48.216Z" style="fill:#70b500;"/><path d="M26.428,89.02l66.542,-57.807l11.197,16.26l-77.739,41.547Z" style="fill:#70b500;"/><path d="M204.379,56.464l-111.646,-6.958l3.257,-20.7l108.389,27.658Z" style="fill:#70b500;"/></svg>